<?xml version="1.0" encoding="UTF-8"?>
<svg id="b" data-name="Layer 2" xmlns="http://www.w3.org/2000/svg" viewBox="0 0 37.66 40.03" fill="#fff" height="18">
  <g id="c" data-name="Layer 1" fill="#fff">
    <path d="M36.21,10.84l-14.1,21.27c-.52.79-1.41,1.26-2.36,1.26h-1.33c-.92,0-1.78-.44-2.31-1.18l-8.06-11.3c-.84-1.17-.66-2.78.41-3.75l3.18-2.87c.52-.48,1.2-.73,1.9-.73.1,0,.2,0,.31.01.8.09,1.53.52,2,1.18l3.04,4.27L29.62,2.69c-.28-.18-.57-.35-.86-.5-2.81-1.46-6.08-2.19-9.83-2.19s-6.82.71-9.68,2.12c-2.86,1.42-5.11,3.6-6.77,6.55C.83,11.62,0,15.43,0,20.08s.79,8.18,2.37,11.13c1.59,2.95,3.8,5.16,6.63,6.62,2.83,1.47,6.07,2.2,9.72,2.2s6.83-.7,9.68-2.09c2.86-1.39,5.11-3.56,6.77-6.52,1.66-2.95,2.49-6.75,2.49-11.41,0-3.54-.49-6.59-1.45-9.17Z"/>
  </g>
</svg>