<?xml version="1.0" encoding="UTF-8"?>
<svg id="Layer_2" xmlns="http://www.w3.org/2000/svg" height="20" viewBox="0 0 122 116.33"><g id="Layer_1-2" fill="#fff"><path d="M91.67,0H30.34C13.58,0,0,13.58,0,30.33v55.67c0,16.75,13.58,30.33,30.34,30.33h61.33c16.75,0,30.33-13.58,30.33-30.33V30.33c0-16.75-13.58-30.33-30.33-30.33ZM60.06,82.61c-.64.7-1.47,1.08-2.36,1.08-.2,0-.42-.03-.62-.07-1.83-.36-3.84-1.73-10-14.9-3.01-6.43-5.66-12.87-5.69-12.93l5.17-2.55c3.56,8.63,8.11,18.44,10.72,22.63,3.3-6.88,11.23-25.96,18.14-43.23l5.2,2.48c-6.66,16.63-18.19,44.9-20.56,47.49Z"/></g></svg>